<?xml version="1.0" encoding="UTF-8" standalone="no"?>
<!DOCTYPE svg PUBLIC "-//W3C//DTD SVG 1.1//EN"
 "http://www.w3.org/Graphics/SVG/1.1/DTD/svg11.dtd">
<!-- Generated by graphviz version 2.38.0 (20140413.2041)
 -->
<!-- Title: Tree Pages: 1 -->
<svg width="360pt" height="552pt"
 viewBox="0.00 0.00 360.00 552.00" xmlns="http://www.w3.org/2000/svg" xmlns:xlink="http://www.w3.org/1999/xlink">
<g id="graph0" class="graph" transform="scale(1 1) rotate(0) translate(4 548)">
<title>Tree</title>
<polygon fill="white" stroke="none" points="-4,4 -4,-548 356,-548 356,4 -4,4"/>
<!-- 0 -->
<g id="node1" class="node"><title>0</title>
<path fill="#e58139" fill-opacity="0.027451" stroke="black" d="M203,-544C203,-544 80,-544 80,-544 74,-544 68,-538 68,-532 68,-532 68,-473 68,-473 68,-467 74,-461 80,-461 80,-461 203,-461 203,-461 209,-461 215,-467 215,-473 215,-473 215,-532 215,-532 215,-538 209,-544 203,-544"/>
<text text-anchor="start" x="76" y="-528.8" font-family="Helvetica,sans-Serif" font-size="14.00">petal width (cm) ≤ 0.8</text>
<text text-anchor="start" x="106" y="-513.8" font-family="Helvetica,sans-Serif" font-size="14.00">gini = 0.666</text>
<text text-anchor="start" x="96.5" y="-498.8" font-family="Helvetica,sans-Serif" font-size="14.00">samples = 112</text>
<text text-anchor="start" x="83.5" y="-483.8" font-family="Helvetica,sans-Serif" font-size="14.00">value = [39, 36, 37]</text>
<text text-anchor="start" x="98" y="-468.8" font-family="Helvetica,sans-Serif" font-size="14.00">class = setosa</text>
</g>
<!-- 1 -->
<g id="node2" class="node"><title>1</title>
<path fill="#e58139" stroke="black" d="M113,-417.5C113,-417.5 20,-417.5 20,-417.5 14,-417.5 8,-411.5 8,-405.5 8,-405.5 8,-361.5 8,-361.5 8,-355.5 14,-349.5 20,-349.5 20,-349.5 113,-349.5 113,-349.5 119,-349.5 125,-355.5 125,-361.5 125,-361.5 125,-405.5 125,-405.5 125,-411.5 119,-417.5 113,-417.5"/>
<text text-anchor="start" x="38.5" y="-402.3" font-family="Helvetica,sans-Serif" font-size="14.00">gini = 0.0</text>
<text text-anchor="start" x="25.5" y="-387.3" font-family="Helvetica,sans-Serif" font-size="14.00">samples = 39</text>
<text text-anchor="start" x="16" y="-372.3" font-family="Helvetica,sans-Serif" font-size="14.00">value = [39, 0, 0]</text>
<text text-anchor="start" x="23" y="-357.3" font-family="Helvetica,sans-Serif" font-size="14.00">class = setosa</text>
</g>
<!-- 0&#45;&gt;1 -->
<g id="edge1" class="edge"><title>0&#45;&gt;1</title>
<path fill="none" stroke="black" d="M115.479,-460.907C108.264,-449.652 100.422,-437.418 93.1706,-426.106"/>
<polygon fill="black" stroke="black" points="96.1041,-424.197 87.7609,-417.667 90.211,-427.975 96.1041,-424.197"/>
<text text-anchor="middle" x="82.4184" y="-438.389" font-family="Helvetica,sans-Serif" font-size="14.00">True</text>
</g>
<!-- 2 -->
<g id="node3" class="node"><title>2</title>
<path fill="#8139e5" fill-opacity="0.027451" stroke="black" d="M278,-425C278,-425 155,-425 155,-425 149,-425 143,-419 143,-413 143,-413 143,-354 143,-354 143,-348 149,-342 155,-342 155,-342 278,-342 278,-342 284,-342 290,-348 290,-354 290,-354 290,-413 290,-413 290,-419 284,-425 278,-425"/>
<text text-anchor="start" x="151" y="-409.8" font-family="Helvetica,sans-Serif" font-size="14.00">petal width (cm) ≤ 1.7</text>
<text text-anchor="start" x="188.5" y="-394.8" font-family="Helvetica,sans-Serif" font-size="14.00">gini = 0.5</text>
<text text-anchor="start" x="175.5" y="-379.8" font-family="Helvetica,sans-Serif" font-size="14.00">samples = 73</text>
<text text-anchor="start" x="162" y="-364.8" font-family="Helvetica,sans-Serif" font-size="14.00">value = [0, 36, 37]</text>
<text text-anchor="start" x="168" y="-349.8" font-family="Helvetica,sans-Serif" font-size="14.00">class = virginica</text>
</g>
<!-- 0&#45;&gt;2 -->
<g id="edge2" class="edge"><title>0&#45;&gt;2</title>
<path fill="none" stroke="black" d="M167.521,-460.907C173.164,-452.105 179.19,-442.703 185.018,-433.612"/>
<polygon fill="black" stroke="black" points="188.075,-435.328 190.525,-425.021 182.182,-431.551 188.075,-435.328"/>
<text text-anchor="middle" x="195.868" y="-445.743" font-family="Helvetica,sans-Serif" font-size="14.00">False</text>
</g>
<!-- 3 -->
<g id="node4" class="node"><title>3</title>
<path fill="#39e581" fill-opacity="0.945098" stroke="black" d="M204.5,-306C204.5,-306 76.5,-306 76.5,-306 70.5,-306 64.5,-300 64.5,-294 64.5,-294 64.5,-235 64.5,-235 64.5,-229 70.5,-223 76.5,-223 76.5,-223 204.5,-223 204.5,-223 210.5,-223 216.5,-229 216.5,-235 216.5,-235 216.5,-294 216.5,-294 216.5,-300 210.5,-306 204.5,-306"/>
<text text-anchor="start" x="72.5" y="-290.8" font-family="Helvetica,sans-Serif" font-size="14.00">petal length (cm) ≤ 5.0</text>
<text text-anchor="start" x="112.5" y="-275.8" font-family="Helvetica,sans-Serif" font-size="14.00">gini = 0.1</text>
<text text-anchor="start" x="99.5" y="-260.8" font-family="Helvetica,sans-Serif" font-size="14.00">samples = 38</text>
<text text-anchor="start" x="90" y="-245.8" font-family="Helvetica,sans-Serif" font-size="14.00">value = [0, 36, 2]</text>
<text text-anchor="start" x="88" y="-230.8" font-family="Helvetica,sans-Serif" font-size="14.00">class = versicolor</text>
</g>
<!-- 2&#45;&gt;3 -->
<g id="edge3" class="edge"><title>2&#45;&gt;3</title>
<path fill="none" stroke="black" d="M190.132,-341.907C184.414,-333.105 178.307,-323.703 172.402,-314.612"/>
<polygon fill="black" stroke="black" points="175.204,-312.5 166.821,-306.021 169.333,-316.313 175.204,-312.5"/>
</g>
<!-- 8 -->
<g id="node9" class="node"><title>8</title>
<path fill="#8139e5" stroke="black" d="M340,-298.5C340,-298.5 247,-298.5 247,-298.5 241,-298.5 235,-292.5 235,-286.5 235,-286.5 235,-242.5 235,-242.5 235,-236.5 241,-230.5 247,-230.5 247,-230.5 340,-230.5 340,-230.5 346,-230.5 352,-236.5 352,-242.5 352,-242.5 352,-286.5 352,-286.5 352,-292.5 346,-298.5 340,-298.5"/>
<text text-anchor="start" x="265.5" y="-283.3" font-family="Helvetica,sans-Serif" font-size="14.00">gini = 0.0</text>
<text text-anchor="start" x="252.5" y="-268.3" font-family="Helvetica,sans-Serif" font-size="14.00">samples = 35</text>
<text text-anchor="start" x="243" y="-253.3" font-family="Helvetica,sans-Serif" font-size="14.00">value = [0, 0, 35]</text>
<text text-anchor="start" x="245" y="-238.3" font-family="Helvetica,sans-Serif" font-size="14.00">class = virginica</text>
</g>
<!-- 2&#45;&gt;8 -->
<g id="edge8" class="edge"><title>2&#45;&gt;8</title>
<path fill="none" stroke="black" d="M243.215,-341.907C250.622,-330.652 258.673,-318.418 266.118,-307.106"/>
<polygon fill="black" stroke="black" points="269.098,-308.944 271.672,-298.667 263.251,-305.096 269.098,-308.944"/>
</g>
<!-- 4 -->
<g id="node5" class="node"><title>4</title>
<path fill="#39e581" stroke="black" d="M109,-179.5C109,-179.5 12,-179.5 12,-179.5 6,-179.5 0,-173.5 0,-167.5 0,-167.5 0,-123.5 0,-123.5 0,-117.5 6,-111.5 12,-111.5 12,-111.5 109,-111.5 109,-111.5 115,-111.5 121,-117.5 121,-123.5 121,-123.5 121,-167.5 121,-167.5 121,-173.5 115,-179.5 109,-179.5"/>
<text text-anchor="start" x="32.5" y="-164.3" font-family="Helvetica,sans-Serif" font-size="14.00">gini = 0.0</text>
<text text-anchor="start" x="19.5" y="-149.3" font-family="Helvetica,sans-Serif" font-size="14.00">samples = 35</text>
<text text-anchor="start" x="10" y="-134.3" font-family="Helvetica,sans-Serif" font-size="14.00">value = [0, 35, 0]</text>
<text text-anchor="start" x="8" y="-119.3" font-family="Helvetica,sans-Serif" font-size="14.00">class = versicolor</text>
</g>
<!-- 3&#45;&gt;4 -->
<g id="edge4" class="edge"><title>3&#45;&gt;4</title>
<path fill="none" stroke="black" d="M112.744,-222.907C105.049,-211.652 96.6835,-199.418 88.9487,-188.106"/>
<polygon fill="black" stroke="black" points="91.7118,-185.946 83.1782,-179.667 85.9334,-189.897 91.7118,-185.946"/>
</g>
<!-- 5 -->
<g id="node6" class="node"><title>5</title>
<path fill="#8139e5" fill-opacity="0.498039" stroke="black" d="M290,-187C290,-187 151,-187 151,-187 145,-187 139,-181 139,-175 139,-175 139,-116 139,-116 139,-110 145,-104 151,-104 151,-104 290,-104 290,-104 296,-104 302,-110 302,-116 302,-116 302,-175 302,-175 302,-181 296,-187 290,-187"/>
<text text-anchor="start" x="147" y="-171.8" font-family="Helvetica,sans-Serif" font-size="14.00">sepal length (cm) ≤ 6.05</text>
<text text-anchor="start" x="185" y="-156.8" font-family="Helvetica,sans-Serif" font-size="14.00">gini = 0.444</text>
<text text-anchor="start" x="183" y="-141.8" font-family="Helvetica,sans-Serif" font-size="14.00">samples = 3</text>
<text text-anchor="start" x="173.5" y="-126.8" font-family="Helvetica,sans-Serif" font-size="14.00">value = [0, 1, 2]</text>
<text text-anchor="start" x="172" y="-111.8" font-family="Helvetica,sans-Serif" font-size="14.00">class = virginica</text>
</g>
<!-- 3&#45;&gt;5 -->
<g id="edge5" class="edge"><title>3&#45;&gt;5</title>
<path fill="none" stroke="black" d="M168.256,-222.907C174.337,-214.014 180.836,-204.509 187.111,-195.331"/>
<polygon fill="black" stroke="black" points="190.038,-197.251 192.793,-187.021 184.26,-193.3 190.038,-197.251"/>
</g>
<!-- 6 -->
<g id="node7" class="node"><title>6</title>
<path fill="#39e581" stroke="black" d="M201,-68C201,-68 104,-68 104,-68 98,-68 92,-62 92,-56 92,-56 92,-12 92,-12 92,-6 98,-0 104,-0 104,-0 201,-0 201,-0 207,-0 213,-6 213,-12 213,-12 213,-56 213,-56 213,-62 207,-68 201,-68"/>
<text text-anchor="start" x="124.5" y="-52.8" font-family="Helvetica,sans-Serif" font-size="14.00">gini = 0.0</text>
<text text-anchor="start" x="115" y="-37.8" font-family="Helvetica,sans-Serif" font-size="14.00">samples = 1</text>
<text text-anchor="start" x="105.5" y="-22.8" font-family="Helvetica,sans-Serif" font-size="14.00">value = [0, 1, 0]</text>
<text text-anchor="start" x="100" y="-7.8" font-family="Helvetica,sans-Serif" font-size="14.00">class = versicolor</text>
</g>
<!-- 5&#45;&gt;6 -->
<g id="edge6" class="edge"><title>5&#45;&gt;6</title>
<path fill="none" stroke="black" d="M195.179,-103.726C189.742,-94.9703 183.987,-85.7032 178.523,-76.9051"/>
<polygon fill="black" stroke="black" points="181.428,-74.9484 173.179,-68.2996 175.481,-78.6413 181.428,-74.9484"/>
</g>
<!-- 7 -->
<g id="node8" class="node"><title>7</title>
<path fill="#8139e5" stroke="black" d="M332,-68C332,-68 243,-68 243,-68 237,-68 231,-62 231,-56 231,-56 231,-12 231,-12 231,-6 237,-0 243,-0 243,-0 332,-0 332,-0 338,-0 344,-6 344,-12 344,-12 344,-56 344,-56 344,-62 338,-68 332,-68"/>
<text text-anchor="start" x="259.5" y="-52.8" font-family="Helvetica,sans-Serif" font-size="14.00">gini = 0.0</text>
<text text-anchor="start" x="250" y="-37.8" font-family="Helvetica,sans-Serif" font-size="14.00">samples = 2</text>
<text text-anchor="start" x="240.5" y="-22.8" font-family="Helvetica,sans-Serif" font-size="14.00">value = [0, 0, 2]</text>
<text text-anchor="start" x="239" y="-7.8" font-family="Helvetica,sans-Serif" font-size="14.00">class = virginica</text>
</g>
<!-- 5&#45;&gt;7 -->
<g id="edge7" class="edge"><title>5&#45;&gt;7</title>
<path fill="none" stroke="black" d="M245.448,-103.726C250.806,-94.9703 256.476,-85.7032 261.859,-76.9051"/>
<polygon fill="black" stroke="black" points="264.891,-78.6563 267.125,-68.2996 258.92,-75.0028 264.891,-78.6563"/>
</g>
</g>
</svg>
